<?xml version="1.0" standalone="no"?>
<!DOCTYPE svg PUBLIC "-//W3C//DTD SVG 20010904//EN"
 "http://www.w3.org/TR/2001/REC-SVG-20010904/DTD/svg10.dtd">
<svg version="1.0" xmlns="http://www.w3.org/2000/svg"
 width="425.000000pt" height="425.000000pt" viewBox="0 0 425.000000 425.000000"
 preserveAspectRatio="xMidYMid meet">

<g transform="translate(0.000000,425.000000) scale(0.100000,-0.100000)"
fill="rgb(177,17,17)" stroke="none">
<path d="M1790 3387 c-320 -111 -489 -172 -559 -204 -88 -41 -195 -158 -361
-393 -79 -113 -204 -288 -278 -390 -183 -252 -187 -260 -187 -385 0 -87 3
-107 26 -155 85 -179 280 -233 484 -135 146 70 218 199 264 473 11 67 27 125
39 144 11 17 104 119 207 225 103 107 208 218 232 248 25 30 61 64 80 76 31
19 39 20 73 10 22 -6 48 -23 58 -36 42 -53 39 -78 -49 -368 -93 -307 -100
-358 -60 -440 28 -59 98 -121 158 -141 26 -9 74 -16 107 -16 113 0 230 91 271
210 10 28 20 113 26 220 11 191 15 204 74 216 26 5 37 0 72 -33 41 -36 45 -47
107 -248 76 -244 126 -429 126 -467 0 -30 -49 -77 -83 -79 -12 -1 -290 -2
-618 -3 l-596 -1 -68 -35 c-54 -28 -84 -53 -143 -120 -174 -199 -223 -238
-287 -226 -18 4 -73 32 -121 63 -225 143 -275 163 -366 148 -138 -23 -281
-165 -324 -321 -22 -82 -11 -161 34 -257 81 -171 223 -240 495 -238 280 1 454
70 781 309 82 59 116 78 194 103 89 28 111 31 326 40 127 6 443 9 701 7 548
-4 450 17 777 -166 365 -204 492 -262 580 -262 150 0 238 96 246 269 5 110 -9
165 -57 212 -42 43 -85 57 -196 65 -44 3 -102 15 -128 25 -125 52 -445 213
-483 244 -76 62 -111 131 -206 399 -177 502 -256 757 -298 958 -22 108 -84
164 -169 153 -25 -3 -76 -20 -115 -38 -124 -57 -216 -38 -264 54 -17 34 -25
72 -31 145 -9 116 -24 150 -83 189 -33 22 -57 30 -103 32 -54 3 -86 -5 -305
-80z m310 -77 c29 -15 41 -45 51 -120 17 -141 79 -239 177 -283 65 -28 177
-28 250 2 59 24 105 27 119 9 5 -7 17 -40 27 -73 21 -70 219 -689 305 -952 63
-193 99 -266 178 -353 65 -72 139 -119 339 -216 264 -128 282 -135 383 -149
105 -15 141 -34 155 -84 21 -72 -41 -171 -107 -171 -68 0 -283 96 -548 243
-205 114 -275 146 -345 157 -94 15 -695 30 -1134 27 l-405 -2 -45 -24 c-25
-13 -90 -54 -145 -92 -267 -180 -485 -288 -657 -324 -99 -21 -243 -19 -293 4
-43 19 -104 81 -130 131 -40 78 -6 200 77 275 86 77 120 74 340 -32 174 -83
244 -99 322 -71 48 18 119 76 176 147 89 110 166 184 207 203 40 18 77 19 635
18 331 0 607 3 624 8 72 22 126 66 158 129 38 75 18 173 -130 639 -56 178 -84
231 -146 277 -96 71 -219 60 -295 -26 -43 -49 -50 -82 -61 -277 -5 -96 -14
-176 -22 -190 -23 -46 -83 -100 -118 -106 -82 -16 -172 50 -172 126 0 21 36
159 80 306 45 150 80 285 80 309 0 56 -23 129 -53 168 -34 44 -116 87 -180 94
-95 10 -118 -8 -411 -313 -310 -323 -315 -330 -346 -519 -35 -205 -79 -294
-169 -342 -59 -31 -173 -33 -231 -3 -72 37 -118 127 -101 200 12 52 34 91 125
213 45 62 164 228 265 370 101 141 211 286 244 322 77 85 140 115 497 238 151
52 289 99 305 105 39 14 101 15 125 2z"/>
</g>
</svg>
