<?xml version="1.0" encoding="utf-8"?>
<!-- Generator: Adobe Illustrator 28.0.0, SVG Export Plug-In . SVG Version: 6.00 Build 0)  -->
<svg version="1.1" id="Livello_3" xmlns="http://www.w3.org/2000/svg" xmlns:xlink="http://www.w3.org/1999/xlink" x="0px" y="0px"
	 width="1190.6px" height="841.9px" viewBox="0 0 1190.6 841.9" style="enable-background:new 0 0 1190.6 841.9;"
	 xml:space="preserve">
<style type="text/css">
	.st0{clip-path:url(#SVGID_00000031201504224004806130000016413552076977051565_);fill:none;stroke:rgb(177,17,17);stroke-width:40;}
</style>
<g>
	<defs>
		<rect id="SVGID_1_" x="72.9" y="139.6" width="1044.8" height="562.6"/>
	</defs>
	<clipPath id="SVGID_00000178910509758806336140000010321747444923451837_">
		<use xlink:href="#SVGID_1_"  style="overflow:visible;"/>
	</clipPath>
	
		<path style="clip-path:url(#SVGID_00000178910509758806336140000010321747444923451837_);fill:none;stroke:rgb(177,17,17);stroke-width:40;" d="
		M167.2,692.3c-17.2,0-80.3-14.2-84.1-73.7c-3.8-59.5,48.2-136.1,110.6-153.1c62.4-17,246.6-77,276.8-75.1
		c30.2,1.9,65.2-11.3,93.5-34c28.3-22.7,45.4-58.1,66.1-82.2c20.8-24.1,50.1-53.9,81.3-66.6C742.6,194.8,805,166,839,159.8
		c34-6.1,77.5-26,115.3,15.1c37.8,41.1,131.3,176.7,148.3,221.1c17,44.4-11.3,77.5-45.4,53.9c-34-23.6-65.2-45.4-70.9-93.5
		c-5.7-48.2-44.4-136.1-109.6-120.5c-65.2,15.6-154,55.3-176.7,72.3c-22.7,17-35.9,39.7-22.7,58.1c13.2,18.4,50.1,15.6,88.8-9.9
		c38.7-25.5,108.7-60,124.7-15.1c16.1,44.9,35.9,98.7,38.7,128.5c2.8,29.8,5.7,54.8-39.7,64.3c-45.4,9.5-129.4,20.8-160.6,26.5
		c-31.2,5.7-67.1,6.6-66.1-37.8c0.9-44.4,8.5-75.4-21.7-90.7c-30.2-15.4-61.4-0.9-94.5,8.5c-33.1,9.5-242.8,66.1-283.5,77.5
		c-40.6,11.3-95.4,35-89.8,78.4c5.7,43.5,53.9,37.8,107.7,17c53.9-20.8,183.3-67.1,216.4-79.8c33.1-12.8,74.6-23.2,79.4,0.5
		c4.7,23.6-9.4,69-79.4,88.8C428,642.7,226.7,692.3,167.2,692.3z"/>
</g>
</svg>
