<?xml version="1.0" standalone="no"?>
<!DOCTYPE svg PUBLIC "-//W3C//DTD SVG 20010904//EN"
 "http://www.w3.org/TR/2001/REC-SVG-20010904/DTD/svg10.dtd">
<svg version="1.0" xmlns="http://www.w3.org/2000/svg"
 width="768.000000pt" height="440.000000pt" viewBox="0 0 768.000000 440.000000"
 preserveAspectRatio="xMidYMid meet">

<g transform="translate(0.000000,440.000000) scale(0.100000,-0.100000)"
fill="rgb(177,17,17)" stroke="none">
<path d="M5835 4376 c-302 -74 -565 -226 -720 -416 -105 -130 -143 -238 -175
-505 -11 -93 -29 -213 -40 -265 -20 -99 -42 -225 -85 -495 -33 -206 -49 -278
-87 -395 -85 -258 -226 -403 -453 -465 -147 -39 -480 -26 -690 29 -110 28
-236 80 -275 113 -56 46 -62 123 -20 253 29 92 194 471 257 590 107 206 238
376 281 368 19 -4 20 -10 53 -198 48 -274 139 -461 246 -506 85 -36 193 -3
289 88 153 144 264 404 370 863 29 126 35 169 35 265 -1 296 -146 572 -325
621 -23 7 -78 9 -126 6 -95 -6 -177 -34 -296 -104 -392 -228 -426 -250 -799
-530 -531 -397 -703 -497 -975 -568 -212 -55 -311 -123 -344 -238 -40 -139 0
-233 128 -296 68 -33 214 -70 279 -71 42 0 237 -44 267 -60 32 -17 53 -68 47
-116 -14 -131 -160 -272 -447 -435 l-95 -54 -97 0 c-92 0 -98 1 -135 31 -82
66 -164 294 -132 370 7 16 43 58 79 94 89 87 108 134 93 235 -13 92 -47 166
-108 233 -55 61 -94 80 -185 92 -153 20 -282 -24 -509 -175 -241 -159 -414
-321 -470 -438 -29 -61 -31 -71 -31 -183 0 -133 5 -147 76 -218 73 -73 133
-106 431 -234 181 -78 245 -115 297 -173 42 -45 48 -96 17 -142 -25 -38 -50
-55 -161 -104 -191 -86 -347 -218 -411 -348 -77 -157 -39 -361 93 -501 126
-134 326 -203 633 -219 175 -10 535 18 730 55 28 5 91 17 140 25 164 29 339
66 404 86 110 33 201 94 247 164 63 96 38 293 -46 369 -21 19 -51 41 -67 49
-80 42 -240 69 -503 87 -286 19 -352 39 -358 112 -4 45 34 110 77 133 44 22
149 45 211 45 94 0 306 -39 418 -76 146 -48 214 -144 292 -409 76 -258 83
-280 116 -353 82 -181 294 -303 631 -362 92 -17 157 -20 369 -20 141 0 284 4
318 10 33 5 106 17 161 26 418 67 789 224 919 390 92 118 112 275 51 398 -76
154 -258 260 -450 261 -110 0 -152 -11 -325 -87 -138 -61 -346 -132 -480 -165
-62 -15 -118 -18 -328 -18 -240 0 -254 1 -268 19 -19 27 -18 37 9 77 30 45 74
58 232 69 195 13 365 48 555 115 413 143 595 373 764 965 9 30 25 144 36 252
11 109 22 208 25 220 2 13 18 91 35 173 117 563 274 813 524 832 52 4 66 2 96
-19 52 -35 63 -79 57 -218 -8 -176 -57 -327 -190 -580 -31 -58 -79 -159 -107
-225 -67 -155 -94 -207 -170 -335 -161 -268 -220 -423 -220 -572 0 -185 106
-307 307 -354 56 -13 78 -14 128 -4 160 32 267 136 424 412 32 57 109 186 170
288 223 369 370 694 462 1025 20 72 23 108 27 364 3 272 3 287 -19 353 -103
323 -373 562 -712 633 -113 24 -358 19 -472 -9z m413 -242 c301 -62 508 -320
537 -669 24 -283 -141 -753 -438 -1246 -51 -86 -124 -214 -162 -285 -101 -192
-170 -284 -237 -320 -40 -21 -104 -18 -128 6 -56 56 -4 202 190 530 89 151
217 399 274 530 16 36 37 84 48 108 46 103 115 311 155 467 20 78 20 233 -1
310 -86 320 -400 486 -656 346 -228 -124 -415 -413 -544 -842 -34 -112 -66
-322 -66 -430 0 -69 -27 -240 -60 -374 -132 -547 -310 -751 -758 -869 -71 -19
-144 -29 -244 -35 -113 -7 -160 -14 -223 -36 -161 -54 -277 -137 -325 -231
-31 -63 -38 -161 -16 -237 53 -181 221 -277 487 -277 249 0 616 91 968 240
l125 52 97 -4 c83 -4 104 -9 143 -32 60 -35 73 -62 57 -115 -17 -60 -84 -112
-204 -161 -56 -23 -115 -47 -132 -54 -102 -43 -352 -102 -535 -127 -132 -17
-491 -23 -595 -9 -276 36 -428 109 -493 237 -25 47 -62 170 -102 333 -36 148
-61 217 -107 286 -94 145 -271 257 -497 314 -66 17 -113 20 -276 20 -262 1
-349 -14 -455 -76 -113 -66 -197 -236 -181 -368 15 -128 74 -215 179 -265 84
-39 148 -49 387 -61 223 -11 306 -22 388 -52 43 -16 52 -24 52 -43 0 -26 -34
-55 -103 -85 -99 -44 -524 -144 -767 -181 -173 -26 -451 -36 -545 -20 -138 24
-341 148 -375 230 -24 59 24 189 91 246 38 31 132 79 249 125 164 66 232 119
279 219 23 49 26 69 26 156 0 90 -3 106 -29 160 -81 164 -372 370 -660 467
-61 20 -111 44 -133 63 -34 30 -35 32 -24 65 6 19 32 61 57 92 107 135 443
362 589 399 91 23 157 -21 124 -82 -7 -13 -44 -58 -84 -99 -86 -90 -115 -155
-115 -256 0 -207 179 -517 349 -603 58 -30 173 -44 253 -31 176 28 435 163
633 330 89 76 135 128 177 204 l28 51 0 -85 c0 -159 49 -218 261 -319 250
-119 494 -185 784 -211 310 -29 619 70 793 254 166 175 255 413 362 971 5 22
15 76 24 120 16 76 34 222 56 435 41 406 143 572 447 724 200 100 422 137 601
100z m-1782 -112 c25 -34 49 -231 49 -397 0 -184 -18 -300 -71 -463 -39 -121
-135 -318 -180 -370 l-31 -36 -12 23 c-20 37 -38 118 -60 272 -23 159 -44 232
-91 314 -82 143 -194 177 -346 104 -135 -64 -284 -275 -507 -717 -80 -158
-174 -343 -209 -413 l-64 -125 4 92 c10 218 -88 363 -287 423 -100 31 -258 60
-401 74 -14 1 -25 8 -25 16 0 10 23 19 79 28 169 29 394 125 624 266 65 39
122 75 127 79 6 5 80 58 165 118 85 60 225 160 310 221 183 131 560 383 643
429 81 45 216 92 246 84 14 -3 30 -13 37 -22z m1727 -1312 c26 0 47 -4 47 -8
0 -9 -118 -48 -124 -41 -2 2 -13 26 -25 53 -27 63 -16 80 23 33 28 -33 36 -37
79 -37z m-111 -45 c21 -33 26 -35 67 -33 24 2 46 -2 48 -7 3 -9 -80 -45 -105
-45 -12 0 -52 83 -52 106 0 25 19 15 42 -21z m-46 -87 c23 -28 34 -33 70 -33
24 0 44 -4 44 -10 0 -5 -3 -10 -7 -11 -5 0 -17 -4 -28 -8 -77 -29 -77 -29 -86
-15 -5 8 -9 21 -9 29 0 8 -7 24 -15 34 -17 22 -20 46 -6 46 5 0 22 -15 37 -32z
m38 -110 c78 0 48 -29 -45 -44 -30 -5 -39 -3 -39 7 0 8 -8 30 -18 49 -30 55
-15 71 24 26 29 -33 38 -38 78 -38z"/>
</g>
</svg>
