<?xml version="1.0" encoding="utf-8"?>
<svg version="1.1" xmlns="http://www.w3.org/2000/svg" xmlns:xlink="http://www.w3.org/1999/xlink" 
     viewBox="0 0 1000 600" xml:space="preserve">
<style type="text/css">
	.track{fill:none;stroke:rgb(177,17,17);stroke-width:28;stroke-linecap:round;stroke-linejoin:round;}
</style>

<!-- Kartbahn Straubing - 1060m mit 3 konzentrischen Runden -->

<!-- Äußere Runde -->
<!-- Linke lange Gerade -->
<path class="track" d="M 150,520 L 150,100"/>
<!-- Obere linke Kurve -->
<path class="track" d="M 150,100 Q 150,50 200,50"/>
<!-- Obere Gerade -->
<path class="track" d="M 200,50 L 850,50"/>
<!-- Obere rechte Kurve -->
<path class="track" d="M 850,50 Q 900,50 900,100"/>
<!-- Rechte lange Gerade -->
<path class="track" d="M 900,100 L 900,520"/>
<!-- Untere rechte Kurve -->
<path class="track" d="M 900,520 Q 900,570 850,570"/>
<!-- Untere Gerade (mit Start/Ziel links) -->
<path class="track" d="M 850,570 L 200,570"/>
<!-- Untere linke Kurve -->
<path class="track" d="M 200,570 Q 150,570 150,520"/>

<!-- Mittlere Runde -->
<!-- Linke Gerade -->
<path class="track" d="M 250,480 L 250,140"/>
<!-- Obere linke Kurve -->
<path class="track" d="M 250,140 Q 250,100 290,100"/>
<!-- Obere Gerade -->
<path class="track" d="M 290,100 L 760,100"/>
<!-- Obere rechte Kurve -->
<path class="track" d="M 760,100 Q 800,100 800,140"/>
<!-- Rechte Gerade -->
<path class="track" d="M 800,140 L 800,480"/>
<!-- Untere rechte Kurve -->
<path class="track" d="M 800,480 Q 800,520 760,520"/>
<!-- Untere Gerade -->
<path class="track" d="M 760,520 L 290,520"/>
<!-- Untere linke Kurve -->
<path class="track" d="M 290,520 Q 250,520 250,480"/>

<!-- Innere kleine Runde -->
<!-- Linke Gerade -->
<path class="track" d="M 400,430 L 400,200"/>
<!-- Obere linke Kurve -->
<path class="track" d="M 400,200 Q 400,170 430,170"/>
<!-- Obere Gerade -->
<path class="track" d="M 430,170 L 620,170"/>
<!-- Obere rechte Kurve -->
<path class="track" d="M 620,170 Q 650,170 650,200"/>
<!-- Rechte Gerade -->
<path class="track" d="M 650,200 L 650,430"/>
<!-- Untere rechte Kurve -->
<path class="track" d="M 650,430 Q 650,460 620,460"/>
<!-- Untere Gerade -->
<path class="track" d="M 620,460 L 430,460"/>
<!-- Untere linke Kurve -->
<path class="track" d="M 430,460 Q 400,460 400,430"/>

<!-- Start/Ziel Markierung (Schachbrett) unten links auf der äußeren Runde -->
<rect x="148" y="555" width="16" height="30" fill="white" stroke="rgb(177,17,17)" stroke-width="2"/>
<rect x="148" y="555" width="8" height="10" fill="rgb(177,17,17)"/>
<rect x="156" y="565" width="8" height="10" fill="rgb(177,17,17)"/>
<rect x="148" y="575" width="8" height="10" fill="rgb(177,17,17)"/>

</svg>