<?xml version="1.0" encoding="utf-8"?>
<svg version="1.1" xmlns="http://www.w3.org/2000/svg" xmlns:xlink="http://www.w3.org/1999/xlink" 
     viewBox="0 0 800 600" xml:space="preserve">
<style type="text/css">
	.track{fill:none;stroke:rgb(177,17,17);stroke-width:35;stroke-linecap:round;stroke-linejoin:round;}
</style>

<!-- Kartbahn Straubing - 1060m Outdoor Track -->

<!-- Start/Ziel Gerade -->
<path class="track" d="M 120,380 L 280,380"/>

<!-- Erste schnelle Rechtskurve -->
<path class="track" d="M 280,380 Q 340,380 380,340 Q 420,300 460,270"/>

<!-- Langgezogene Kurve bergauf -->
<path class="track" d="M 460,270 Q 520,240 560,200 Q 600,160 630,130"/>

<!-- Haarnadelkurve oben rechts -->
<path class="track" d="M 630,130 Q 660,110 680,120 Q 700,130 700,160 Q 700,190 680,210"/>

<!-- Lange Gerade mit leichter Kurve -->
<path class="track" d="M 680,210 L 560,280 Q 480,320 420,340"/>

<!-- Schikane links-rechts -->
<path class="track" d="M 420,340 Q 380,360 360,350 Q 340,340 350,310"/>

<!-- S-Kurve nach unten -->
<path class="track" d="M 350,310 Q 360,270 330,240 Q 300,210 260,220"/>

<!-- Lange weite Linkskurve unten -->
<path class="track" d="M 260,220 Q 220,230 180,260 Q 140,290 120,340"/>

<!-- Letzte Kurve zur Start/Ziel -->
<path class="track" d="M 120,340 Q 110,360 110,380 L 120,380"/>

<!-- Start/Ziel Markierung (Schachbrett) -->
<rect x="118" y="365" width="15" height="30" fill="white" stroke="rgb(177,17,17)" stroke-width="2"/>
<rect x="118" y="365" width="7.5" height="10" fill="rgb(177,17,17)"/>
<rect x="125.5" y="375" width="7.5" height="10" fill="rgb(177,17,17)"/>
<rect x="118" y="385" width="7.5" height="10" fill="rgb(177,17,17)"/>

</svg>