<?xml version="1.0" standalone="no"?>
<!DOCTYPE svg PUBLIC "-//W3C//DTD SVG 20010904//EN"
 "http://www.w3.org/TR/2001/REC-SVG-20010904/DTD/svg10.dtd">
<svg version="1.0" xmlns="http://www.w3.org/2000/svg"
 width="200.000000pt" height="191.000000pt" viewBox="0 0 200.000000 191.000000"
 preserveAspectRatio="xMidYMid meet">

<g transform="translate(0.000000,191.000000) scale(0.100000,-0.100000)"
fill="rgb(177,17,17)" stroke="none">
<path d="M1419 1892 c-13 -10 -37 -25 -54 -34 -81 -40 -238 -137 -308 -189
-43 -33 -84 -59 -90 -59 -33 0 -241 -117 -471 -264 -97 -62 -132 -127 -123
-227 6 -68 31 -249 57 -403 24 -144 53 -203 125 -256 94 -70 114 -110 115
-233 0 -125 46 -190 131 -189 74 1 97 30 168 214 39 100 46 139 31 182 -16 48
-57 80 -137 107 -144 47 -200 117 -232 294 -56 308 -54 322 78 401 42 25 111
68 154 94 79 49 126 70 202 90 62 16 131 65 171 121 51 70 64 51 28 -40 -36
-92 -67 -117 -166 -132 -103 -16 -160 -40 -281 -117 -152 -97 -187 -160 -153
-282 9 -30 25 -95 36 -143 25 -108 47 -154 96 -197 51 -44 93 -60 161 -60 121
0 225 107 225 230 0 72 -22 119 -88 197 -86 102 -72 140 69 172 150 35 206 79
252 196 13 33 37 95 54 138 17 43 31 83 31 88 0 5 9 28 19 52 10 23 31 78 47
123 l28 81 -23 31 c-20 29 -27 32 -75 32 -36 0 -61 -6 -77 -18z m81 -67 c0 -8
-11 -43 -24 -77 -14 -35 -50 -130 -81 -213 -31 -82 -61 -162 -67 -178 -13 -35
-70 -85 -106 -93 -183 -42 -212 -55 -243 -114 -27 -50 -24 -97 11 -152 17 -27
34 -48 39 -48 5 0 23 -21 41 -47 29 -44 31 -54 28 -112 -4 -58 -7 -66 -40 -97
-63 -57 -153 -58 -214 -1 -29 27 -39 48 -60 127 -43 161 -53 219 -43 253 10
34 44 75 74 88 11 5 49 27 85 50 71 45 147 73 225 84 128 18 184 73 229 223
14 48 14 58 0 90 -18 44 -29 52 -76 52 -53 0 -64 -6 -98 -61 -38 -59 -70 -79
-184 -118 -49 -17 -134 -58 -190 -91 -55 -34 -110 -67 -121 -73 -86 -52 -128
-92 -153 -145 l-25 -55 22 -151 c13 -83 27 -172 31 -198 14 -71 58 -154 109
-205 48 -48 149 -103 189 -103 28 0 72 -42 72 -69 0 -32 -89 -254 -108 -268
-20 -16 -24 -16 -48 1 -16 12 -20 31 -24 118 -7 134 -34 191 -123 262 -85 67
-103 103 -122 244 -9 64 -25 168 -36 231 -27 160 -26 212 7 250 14 17 51 46
82 64 32 19 95 58 142 87 128 80 196 118 277 152 41 17 97 49 125 72 56 45 84
64 206 133 45 27 104 60 130 75 54 32 62 33 62 13z"/>
</g>
</svg>
