<svg xmlns="http://www.w3.org/2000/svg" viewBox="0 0 400 300">
  <defs>
    <linearGradient id="trackGradient1" x1="0%" y1="0%" x2="100%" y2="100%">
      <stop offset="0%" style="stop-color:#aa1111;stop-opacity:1" />
      <stop offset="100%" style="stop-color:#cc2222;stop-opacity:1" />
    </linearGradient>
  </defs>
  
  <!-- Background -->
  <rect width="400" height="300" fill="#ffffff"/>
  
  <!-- Kartbahn Straubing Layout - 1060m anspruchsvolle Outdoor-Strecke -->
  
  <!-- Start/Ziel Gerade -->
  <path d="M 80 180 L 160 180" 
        stroke="url(#trackGradient1)" 
        stroke-width="22" 
        fill="none" 
        stroke-linecap="round"/>
  
  <!-- Erste schnelle Rechtskurve -->
  <path d="M 160 180 Q 200 180 220 160 Q 240 140 260 130" 
        stroke="url(#trackGradient1)" 
        stroke-width="22" 
        fill="none" 
        stroke-linecap="round"/>
  
  <!-- Langgezogene Kurve oben -->
  <path d="M 260 130 Q 290 120 310 100 Q 330 80 340 70" 
        stroke="url(#trackGradient1)" 
        stroke-width="22" 
        fill="none" 
        stroke-linecap="round"/>
  
  <!-- Haarnadelkurve rechts oben -->
  <path d="M 340 70 Q 350 60 350 80 Q 350 100 340 110" 
        stroke="url(#trackGradient1)" 
        stroke-width="22" 
        fill="none" 
        stroke-linecap="round"/>
  
  <!-- Lange Gerade zurück -->
  <path d="M 340 110 L 200 160" 
        stroke="url(#trackGradient1)" 
        stroke-width="22" 
        fill="none" 
        stroke-linecap="round"/>
  
  <!-- Schikane -->
  <path d="M 200 160 Q 180 165 170 155 Q 160 145 170 135" 
        stroke="url(#trackGradient1)" 
        stroke-width="22" 
        fill="none" 
        stroke-linecap="round"/>
  
  <!-- S-Kurve nach unten -->
  <path d="M 170 135 Q 175 120 160 110 Q 145 100 130 110" 
        stroke="url(#trackGradient1)" 
        stroke-width="22" 
        fill="none" 
        stroke-linecap="round"/>
  
  <!-- Langsame Kurve unten links -->
  <path d="M 130 110 Q 110 120 90 140 Q 70 160 70 180" 
        stroke="url(#trackGradient1)" 
        stroke-width="22" 
        fill="none" 
        stroke-linecap="round"/>
  
  <!-- Zurück zur Start/Ziel -->
  <path d="M 70 180 L 80 180" 
        stroke="url(#trackGradient1)" 
        stroke-width="22" 
        fill="none" 
        stroke-linecap="round"/>
  
  <!-- Start/Ziel Markierung -->
  <rect x="78" y="168" width="10" height="24" fill="white" opacity="0.9"/>
  <rect x="78" y="168" width="5" height="24" fill="#aa1111"/>
  <rect x="78" y="168" width="5" height="8" fill="white"/>
  <rect x="78" y="184" width="5" height="8" fill="white"/>
</svg>