<svg xmlns="http://www.w3.org/2000/svg" viewBox="0 0 400 300">
  <defs>
    <linearGradient id="trackGradient2" x1="0%" y1="0%" x2="100%" y2="100%">
      <stop offset="0%" style="stop-color:#aa1111;stop-opacity:1" />
      <stop offset="100%" style="stop-color:#cc2222;stop-opacity:1" />
    </linearGradient>
  </defs>
  
  <!-- Background -->
  <rect width="400" height="300" fill="#ffffff"/>
  
  <!-- Kartbahn Teningen Layout - 600m mit Höhenunterschied -->
  
  <!-- Start/Ziel Gerade -->
  <path d="M 100 200 L 180 200" 
        stroke="url(#trackGradient2)" 
        stroke-width="20" 
        fill="none" 
        stroke-linecap="round"/>
  
  <!-- Erste Rechtskurve bergauf -->
  <path d="M 180 200 Q 220 200 240 180 Q 260 160 270 140" 
        stroke="url(#trackGradient2)" 
        stroke-width="20" 
        fill="none" 
        stroke-linecap="round"/>
  
  <!-- Schnelle S-Kurve oben -->
  <path d="M 270 140 Q 280 120 300 110 Q 320 100 330 90" 
        stroke="url(#trackGradient2)" 
        stroke-width="20" 
        fill="none" 
        stroke-linecap="round"/>
  
  <!-- Haarnadelkurve rechts -->
  <path d="M 330 90 Q 350 80 350 100 Q 350 120 330 130" 
        stroke="url(#trackGradient2)" 
        stroke-width="20" 
        fill="none" 
        stroke-linecap="round"/>
  
  <!-- Bergab Sektion mit Kurve -->
  <path d="M 330 130 Q 310 140 290 155 Q 270 170 250 180" 
        stroke="url(#trackGradient2)" 
        stroke-width="20" 
        fill="none" 
        stroke-linecap="round"/>
  
  <!-- Langsame Linkskurve -->
  <path d="M 250 180 Q 220 190 190 185 Q 160 180 140 170" 
        stroke="url(#trackGradient2)" 
        stroke-width="20" 
        fill="none" 
        stroke-linecap="round"/>
  
  <!-- Schnelle Linksrechts-Kombi vor Ziel -->
  <path d="M 140 170 Q 120 160 110 170 Q 100 180 105 190" 
        stroke="url(#trackGradient2)" 
        stroke-width="20" 
        fill="none" 
        stroke-linecap="round"/>
  
  <!-- Letzter Bogen zur Ziellinie -->
  <path d="M 105 190 Q 103 200 100 200" 
        stroke="url(#trackGradient2)" 
        stroke-width="20" 
        fill="none" 
        stroke-linecap="round"/>
  
  <!-- Start/Ziel Markierung -->
  <rect x="98" y="189" width="9" height="22" fill="white" opacity="0.9"/>
  <rect x="98" y="189" width="4.5" height="22" fill="#aa1111"/>
  <rect x="98" y="189" width="4.5" height="7.3" fill="white"/>
  <rect x="98" y="203.7" width="4.5" height="7.3" fill="white"/>
</svg>