<?xml version="1.0" encoding="utf-8"?>
<svg version="1.1" xmlns="http://www.w3.org/2000/svg" xmlns:xlink="http://www.w3.org/1999/xlink" 
     viewBox="0 0 800 600" xml:space="preserve">
<style type="text/css">
	.track{fill:none;stroke:rgb(177,17,17);stroke-width:32;stroke-linecap:round;stroke-linejoin:round;}
</style>

<!-- Kartbahn Teningen - 3 konzentrische Runden basierend auf Skizze -->

<!-- Äußere Runde -->
<!-- Linke Gerade -->
<path class="track" d="M 100,520 L 100,80"/>
<!-- Obere linke Kurve -->
<path class="track" d="M 100,80 Q 100,30 150,30"/>
<!-- Obere Gerade -->
<path class="track" d="M 150,30 L 680,30"/>
<!-- Obere rechte Kurve -->
<path class="track" d="M 680,30 Q 730,30 730,80"/>
<!-- Rechte Gerade -->
<path class="track" d="M 730,80 L 730,520"/>
<!-- Untere rechte Kurve -->
<path class="track" d="M 730,520 Q 730,570 680,570"/>
<!-- Untere Gerade -->
<path class="track" d="M 680,570 L 150,570"/>
<!-- Untere linke Kurve -->
<path class="track" d="M 150,570 Q 100,570 100,520"/>

<!-- Mittlere Runde -->
<!-- Linke Gerade -->
<path class="track" d="M 180,480 L 180,120"/>
<!-- Obere linke Kurve -->
<path class="track" d="M 180,120 Q 180,80 220,80"/>
<!-- Obere Gerade -->
<path class="track" d="M 220,80 L 610,80"/>
<!-- Obere rechte Kurve -->
<path class="track" d="M 610,80 Q 650,80 650,120"/>
<!-- Rechte Gerade -->
<path class="track" d="M 650,120 L 650,480"/>
<!-- Untere rechte Kurve -->
<path class="track" d="M 650,480 Q 650,520 610,520"/>
<!-- Untere Gerade -->
<path class="track" d="M 610,520 L 220,520"/>
<!-- Untere linke Kurve -->
<path class="track" d="M 220,520 Q 180,520 180,480"/>

<!-- Innere kleine Runde -->
<!-- Linke Gerade -->
<path class="track" d="M 280,420 L 280,180"/>
<!-- Obere linke Kurve -->
<path class="track" d="M 280,180 Q 280,140 320,140"/>
<!-- Obere Gerade -->
<path class="track" d="M 320,140 L 510,140"/>
<!-- Obere rechte Kurve -->
<path class="track" d="M 510,140 Q 550,140 550,180"/>
<!-- Rechte Gerade -->
<path class="track" d="M 550,180 L 550,420"/>
<!-- Untere rechte Kurve -->
<path class="track" d="M 550,420 Q 550,460 510,460"/>
<!-- Untere Gerade -->
<path class="track" d="M 510,460 L 320,460"/>
<!-- Untere linke Kurve -->
<path class="track" d="M 320,460 Q 280,460 280,420"/>

<!-- Start/Ziel Markierung (Schachbrett) auf der äußeren Runde unten -->
<rect x="148" y="557" width="14" height="26" fill="white" stroke="rgb(177,17,17)" stroke-width="2"/>
<rect x="148" y="557" width="7" height="8.7" fill="rgb(177,17,17)"/>
<rect x="155" y="565.7" width="7" height="8.7" fill="rgb(177,17,17)"/>
<rect x="148" y="574.3" width="7" height="8.7" fill="rgb(177,17,17)"/>

</svg>