<?xml version="1.0" encoding="utf-8"?>

<svg xmlns="http://www.w3.org/2000/svg" viewBox="0 0 1385 768">
	<style>
		.track { fill: none; stroke: rgb(177,17,17); stroke-width: 48; stroke-linecap: round; stroke-linejoin: round; }
	</style>
	<!-- Außenlinie -->
	<path class="track" d="M 180,700 Q 100,600 100,200 Q 100,100 300,100 Q 900,100 1200,100 Q 1300,100 1300,200 Q 1300,600 1200,700 Q 900,700 300,700 Q 200,700 180,700 Z"/>
	<!-- Mittlere Linie -->
	<path class="track" d="M 300,600 Q 200,500 200,250 Q 200,200 350,200 Q 900,200 1100,200 Q 1200,200 1200,250 Q 1200,500 1100,600 Q 900,600 350,600 Q 300,600 300,600 Z"/>
	<!-- Innenlinie -->
	<path class="track" d="M 400,500 Q 300,400 300,300 Q 300,250 400,250 Q 900,250 1000,250 Q 1100,250 1100,300 Q 1100,400 1000,500 Q 900,500 400,500 Q 400,500 400,500 Z"/>
</svg>