<?xml version="1.0" encoding="utf-8"?>
<svg version="1.1" xmlns="http://www.w3.org/2000/svg" xmlns:xlink="http://www.w3.org/1999/xlink" 
     viewBox="0 0 800 600" xml:space="preserve">
<style type="text/css">
	.track{fill:none;stroke:rgb(177,17,17);stroke-width:32;stroke-linecap:round;stroke-linejoin:round;}
</style>

<!-- Kartbahn Teningen - Kompakte 3-Runden Oval-Strecke -->

<!-- Äußere Runde -->
<!-- Untere Gerade (Start/Ziel) -->
<path class="track" d="M 180,450 L 420,450"/>

<!-- Rechte untere Kurve -->
<path class="track" d="M 420,450 Q 520,450 580,390 Q 640,330 640,250"/>

<!-- Rechte obere Kurve -->
<path class="track" d="M 640,250 Q 640,170 580,110 Q 520,50 420,50"/>

<!-- Obere Gerade -->
<path class="track" d="M 420,50 L 180,50"/>

<!-- Linke obere Kurve -->
<path class="track" d="M 180,50 Q 80,50 20,110 Q -40,170 -40,250"/>

<!-- Linke untere Kurve zurück -->
<path class="track" d="M -40,250 Q -40,330 20,390 Q 80,450 180,450"/>

<!-- Mittlere Runde (etwas kleiner, nach innen versetzt) -->
<!-- Untere Gerade -->
<path class="track" d="M 220,400 L 380,400"/>

<!-- Rechte Kurve -->
<path class="track" d="M 380,400 Q 460,400 510,350 Q 560,300 560,230"/>

<!-- Obere Kurve -->
<path class="track" d="M 560,230 Q 560,160 510,110 Q 460,60 380,60"/>

<!-- Obere Gerade -->
<path class="track" d="M 380,60 L 220,60"/>

<!-- Linke Kurve -->
<path class="track" d="M 220,60 Q 140,60 90,110 Q 40,160 40,230"/>

<!-- Zurück unten -->
<path class="track" d="M 40,230 Q 40,300 90,350 Q 140,400 220,400"/>

<!-- Innere kleine Runde -->
<!-- Unten -->
<path class="track" d="M 260,340 L 340,340"/>

<!-- Rechts -->
<path class="track" d="M 340,340 Q 400,340 440,300 Q 480,260 480,210"/>

<!-- Oben -->
<path class="track" d="M 480,210 Q 480,160 440,120 Q 400,80 340,80"/>

<!-- Oben Gerade -->
<path class="track" d="M 340,80 L 260,80"/>

<!-- Links -->
<path class="track" d="M 260,80 Q 200,80 160,120 Q 120,160 120,210"/>

<!-- Zurück -->
<path class="track" d="M 120,210 Q 120,260 160,300 Q 200,340 260,340"/>

<!-- Start/Ziel Markierung (Schachbrett) -->
<rect x="178" y="437" width="14" height="26" fill="white" stroke="rgb(177,17,17)" stroke-width="2"/>
<rect x="178" y="437" width="7" height="8.7" fill="rgb(177,17,17)"/>
<rect x="185" y="445.7" width="7" height="8.7" fill="rgb(177,17,17)"/>
<rect x="178" y="454.3" width="7" height="8.7" fill="rgb(177,17,17)"/>

</svg>