<?xml version="1.0" encoding="utf-8"?>
<svg version="1.1" xmlns="http://www.w3.org/2000/svg" xmlns:xlink="http://www.w3.org/1999/xlink" 
     viewBox="0 0 800 600" xml:space="preserve">
<style type="text/css">
	.track{fill:none;stroke:rgb(177,17,17);stroke-width:32;stroke-linecap:round;stroke-linejoin:round;}
</style>

<!-- Kartbahn Teningen - 600m Outdoor Track mit Höhenunterschied -->

<!-- Start/Ziel Gerade -->
<path class="track" d="M 150,420 L 280,420"/>

<!-- Erste Rechtskurve bergauf -->
<path class="track" d="M 280,420 Q 340,420 380,380 Q 420,340 450,300"/>

<!-- Schnelle S-Kurve oben -->
<path class="track" d="M 450,300 Q 480,260 520,240 Q 560,220 590,200"/>

<!-- Enge Rechtskurve -->
<path class="track" d="M 590,200 Q 620,180 640,180 Q 660,180 670,200"/>

<!-- Weite Linkskurve nach unten -->
<path class="track" d="M 670,200 Q 680,220 680,260 Q 680,300 660,340"/>

<!-- Bergab Sektion -->
<path class="track" d="M 660,340 Q 640,380 600,400 Q 560,420 520,430"/>

<!-- Langsame Haarnadelkurve links -->
<path class="track" d="M 520,430 Q 460,440 400,420 Q 340,400 300,360"/>

<!-- Schnelle Links-Rechts Kombination -->
<path class="track" d="M 300,360 Q 260,340 240,350 Q 220,360 220,380"/>

<!-- Kurve vor der Ziellinie -->
<path class="track" d="M 220,380 Q 220,400 200,410 Q 180,420 160,420"/>

<!-- Letztes Stück zur Ziellinie -->
<path class="track" d="M 160,420 L 150,420"/>

<!-- Start/Ziel Markierung (Schachbrett) -->
<rect x="148" y="407" width="14" height="26" fill="white" stroke="rgb(177,17,17)" stroke-width="2"/>
<rect x="148" y="407" width="7" height="8.7" fill="rgb(177,17,17)"/>
<rect x="155" y="415.7" width="7" height="8.7" fill="rgb(177,17,17)"/>
<rect x="148" y="424.3" width="7" height="8.7" fill="rgb(177,17,17)"/>

</svg>